<?xml version="1.0" encoding="UTF-8"?>
<svg id="Layer_1" data-name="Layer 1" xmlns="http://www.w3.org/2000/svg" viewBox="0 0 2081.74 709.04">
  <defs>
    <style>
      .cls-1 {
        fill: #fff;
      }

      .cls-1, .cls-2 {
        stroke-width: 0px;
      }

      .cls-2 {
        fill: #070707;
      }
    </style>
  </defs>
  <circle class="cls-2" cx="363.05" cy="358.46" r="341.22"/>
  <path class="cls-1" d="m364.21,296.1c-36.27,54.85-58.54,115.3-77.12,177.32-2.53,8.46-4.02,17.23-6.04,25.84-.96,4.11.59,5.91,4.8,6.29,37.63,3.35,70.75-6.69,97.43-34.04,21.1-21.63,22.57-52.68,4.51-76.98-3.6-4.85-8.02-9.11-11.44-14.07-3.03-4.38-5.78-9.14-7.62-14.11-3.03-8.18-.88-15.66,6.22-20.73,8.77-6.25,17.89-12.05,27.16-17.54,20.1-11.9,40.5-23.31,55.41-42.04,10.47-13.15,15.98-28.06,15.94-44.89-.04-14.24-8.29-23.18-20.07-29.37-11.46-6.02-23.99-7-36.62-6.3-68.42,3.8-123.09,32.79-162.04,89.65-13.76,20.09-22.3,42.4-23.43,67.04-.19,4.24-2.02,4.96-5.65,4.82-15.28-.58-25.67-9.97-27.86-25.57-2.78-19.85,2.56-38.18,11.21-55.67,16.79-33.95,42.38-60.28,73.02-81.83,40.93-28.78,86.02-45.73,136.64-45.75,22.12,0,43.35,4.64,63.42,13.99,43.58,20.31,58.28,59.07,37.97,102.6-20.34,43.6-55.03,72.26-98.68,90.88-1.57.67-3.21,1.16-4.79,1.73.13.68.06,1.29.3,1.46,26.16,17.91,33.06,43.77,29.16,73.32-6.38,48.42-36,78.96-78.63,98.58-28.13,12.94-58.04,18.18-88.87,17.98-25.75-.16-40.87-16.18-42.95-44.62-1.95-26.73,3.21-52.52,10.68-77.89,11.7-39.73,27.11-77.92,49.33-113.07,8.05-12.73,17.85-23.88,31.21-31.41,13.46-7.58,27.3-5.96,37.4,4.37Z"/>
  <g>
    <path class="cls-2" d="m867.37,190.49v108.81c14.43-19.89,37.83-30.81,62.4-30.81,58.11,0,93.6,53.82,93.6,108.42s-36.66,111.15-97.89,111.15c-24.57,0-47.97-11.31-61.62-31.98l-1.56,26.13h-58.5V190.49h63.57Zm5.46,214.5c3.9,8.19,9.36,14.43,16.38,18.72,6.63,4.68,14.43,7.02,23.4,7.02,28.47,0,46.02-24.96,46.02-52.26,0-10.14-1.95-19.11-5.85-27.3-4.29-7.8-9.75-14.04-16.38-18.72-7.02-4.29-14.82-6.63-23.79-6.63-28.86,0-46.02,25.35-46.02,52.65,0,9.75,1.95,18.72,6.24,26.52Z"/>
    <path class="cls-2" d="m1119.7,274.34v115.44c0,21.06,9.36,40.95,33.15,40.95s33.15-19.11,33.15-40.95v-115.44h63.57v114.27c0,58.11-35.88,99.45-97.11,99.45s-96.33-39.78-96.33-99.45v-114.27h63.57Z"/>
    <path class="cls-2" d="m1342.38,274.34l42.9,136.5,38.22-136.5h67.47l-82.68,222.69c-13.65,37.05-35.88,65.52-78.39,65.52-13.65,0-28.86-2.73-40.56-9.75l11.31-48.75c6.63,2.73,14.43,5.07,21.84,5.07,17.16,0,25.74-11.7,31.59-26.52l1.56-3.51-83.07-204.75h69.81Z"/>
    <path class="cls-2" d="m1513.98,190.49h63.57v291.72h-63.57V190.49Z"/>
    <path class="cls-2" d="m1721.85,268.49c62.01,0,109.98,46.02,109.98,109.59s-47.97,109.98-111.54,109.98-109.98-45.63-109.98-109.2,47.97-110.37,111.54-110.37Zm-46.8,109.98c0,9.75,1.95,18.72,6.24,26.52,7.41,15.6,22.62,25.74,39.78,25.74,28.47,0,46.02-25.35,46.02-52.26,0-10.14-1.95-19.11-5.85-27.3-8.58-15.6-22.23-25.35-40.17-25.35-28.86,0-46.02,25.35-46.02,52.65Z"/>
    <path class="cls-2" d="m1928.15,190.49v166.92l68.64-83.07h72.15l-79.56,92.04,88.92,115.83h-78.39l-71.76-102.18v102.18h-63.57V190.49h63.57Z"/>
  </g>
</svg>